<mxfile host="app.diagrams.net" agent="Mozilla/5.0 (Windows NT 10.0; Win64; x64) AppleWebKit/537.36 (KHTML, like Gecko) Chrome/138.0.0.0 Safari/537.36" version="28.0.4">
  <diagram name="Page-1" id="zzf0hZyiKcXIkuLETEnJ">
    <mxGraphModel dx="512" dy="562" grid="1" gridSize="10" guides="1" tooltips="1" connect="1" arrows="1" fold="1" page="1" pageScale="1" pageWidth="850" pageHeight="1100" math="0" shadow="0">
      <root>
        <mxCell id="0" />
        <mxCell id="1" parent="0" />
        <mxCell id="6QKYpgGyAuVAJI2kbbSl-1" value="" style="rounded=1;whiteSpace=wrap;html=1;fontStyle=1" vertex="1" parent="1">
          <mxGeometry x="120" y="80" width="120" height="60" as="geometry" />
        </mxCell>
        <mxCell id="6QKYpgGyAuVAJI2kbbSl-4" value="" style="endArrow=classic;html=1;rounded=0;exitX=0.5;exitY=1;exitDx=0;exitDy=0;fontStyle=1" edge="1" parent="1" source="6QKYpgGyAuVAJI2kbbSl-1">
          <mxGeometry width="50" height="50" relative="1" as="geometry">
            <mxPoint x="180" y="320" as="sourcePoint" />
            <mxPoint x="180" y="200" as="targetPoint" />
          </mxGeometry>
        </mxCell>
        <mxCell id="6QKYpgGyAuVAJI2kbbSl-5" value="" style="rounded=1;whiteSpace=wrap;html=1;fontStyle=1" vertex="1" parent="1">
          <mxGeometry x="120" y="200" width="120" height="60" as="geometry" />
        </mxCell>
        <mxCell id="6QKYpgGyAuVAJI2kbbSl-6" value="" style="rounded=1;whiteSpace=wrap;html=1;fontStyle=1" vertex="1" parent="1">
          <mxGeometry x="120" y="320" width="120" height="60" as="geometry" />
        </mxCell>
        <mxCell id="6QKYpgGyAuVAJI2kbbSl-7" value="" style="endArrow=classic;html=1;rounded=0;exitX=0.5;exitY=1;exitDx=0;exitDy=0;fontStyle=1" edge="1" parent="1">
          <mxGeometry width="50" height="50" relative="1" as="geometry">
            <mxPoint x="179.5" y="260" as="sourcePoint" />
            <mxPoint x="179.5" y="320" as="targetPoint" />
          </mxGeometry>
        </mxCell>
        <mxCell id="6QKYpgGyAuVAJI2kbbSl-8" value="" style="rounded=1;whiteSpace=wrap;html=1;fontStyle=1" vertex="1" parent="1">
          <mxGeometry x="120" y="440" width="120" height="60" as="geometry" />
        </mxCell>
        <mxCell id="6QKYpgGyAuVAJI2kbbSl-9" value="" style="endArrow=classic;html=1;rounded=0;exitX=0.5;exitY=1;exitDx=0;exitDy=0;fontStyle=1" edge="1" parent="1">
          <mxGeometry width="50" height="50" relative="1" as="geometry">
            <mxPoint x="179.5" y="380" as="sourcePoint" />
            <mxPoint x="179.5" y="440" as="targetPoint" />
          </mxGeometry>
        </mxCell>
        <mxCell id="6QKYpgGyAuVAJI2kbbSl-10" value="" style="rounded=1;whiteSpace=wrap;html=1;fontStyle=1" vertex="1" parent="1">
          <mxGeometry x="120" y="560" width="120" height="60" as="geometry" />
        </mxCell>
        <mxCell id="6QKYpgGyAuVAJI2kbbSl-11" value="" style="endArrow=classic;html=1;rounded=0;exitX=0.5;exitY=1;exitDx=0;exitDy=0;fontStyle=1" edge="1" parent="1">
          <mxGeometry width="50" height="50" relative="1" as="geometry">
            <mxPoint x="179.5" y="500" as="sourcePoint" />
            <mxPoint x="179.5" y="560" as="targetPoint" />
          </mxGeometry>
        </mxCell>
        <mxCell id="6QKYpgGyAuVAJI2kbbSl-12" value="" style="endArrow=classic;html=1;rounded=0;fontStyle=1" edge="1" parent="1">
          <mxGeometry width="50" height="50" relative="1" as="geometry">
            <mxPoint x="240" y="590" as="sourcePoint" />
            <mxPoint x="320" y="590" as="targetPoint" />
          </mxGeometry>
        </mxCell>
        <mxCell id="6QKYpgGyAuVAJI2kbbSl-13" value="" style="rounded=1;whiteSpace=wrap;html=1;fontStyle=1" vertex="1" parent="1">
          <mxGeometry x="320" y="560" width="120" height="60" as="geometry" />
        </mxCell>
        <mxCell id="6QKYpgGyAuVAJI2kbbSl-14" value="" style="rounded=1;whiteSpace=wrap;html=1;fontStyle=1" vertex="1" parent="1">
          <mxGeometry x="320" y="440" width="120" height="60" as="geometry" />
        </mxCell>
        <mxCell id="6QKYpgGyAuVAJI2kbbSl-15" value="" style="rounded=1;whiteSpace=wrap;html=1;fontStyle=1" vertex="1" parent="1">
          <mxGeometry x="320" y="320" width="120" height="60" as="geometry" />
        </mxCell>
        <mxCell id="6QKYpgGyAuVAJI2kbbSl-16" value="" style="endArrow=classic;html=1;rounded=0;entryX=0.5;entryY=1;entryDx=0;entryDy=0;fontStyle=1" edge="1" parent="1" target="6QKYpgGyAuVAJI2kbbSl-14">
          <mxGeometry width="50" height="50" relative="1" as="geometry">
            <mxPoint x="380" y="560" as="sourcePoint" />
            <mxPoint x="430" y="510" as="targetPoint" />
          </mxGeometry>
        </mxCell>
        <mxCell id="6QKYpgGyAuVAJI2kbbSl-17" value="" style="endArrow=classic;html=1;rounded=0;entryX=0.5;entryY=1;entryDx=0;entryDy=0;fontStyle=1" edge="1" parent="1">
          <mxGeometry width="50" height="50" relative="1" as="geometry">
            <mxPoint x="379.5" y="440" as="sourcePoint" />
            <mxPoint x="379.5" y="380" as="targetPoint" />
          </mxGeometry>
        </mxCell>
        <mxCell id="6QKYpgGyAuVAJI2kbbSl-18" value="&lt;font face=&quot;Times New Roman&quot;&gt;Raw URL Data Sources&lt;/font&gt;" style="text;html=1;align=center;verticalAlign=middle;whiteSpace=wrap;rounded=0;fontStyle=1" vertex="1" parent="1">
          <mxGeometry x="140" y="95" width="80" height="30" as="geometry" />
        </mxCell>
        <mxCell id="6QKYpgGyAuVAJI2kbbSl-19" value="&lt;font face=&quot;Times New Roman&quot;&gt;Data Collection Module&lt;/font&gt;" style="text;html=1;align=center;verticalAlign=middle;whiteSpace=wrap;rounded=0;fontStyle=1" vertex="1" parent="1">
          <mxGeometry x="140" y="215" width="80" height="30" as="geometry" />
        </mxCell>
        <mxCell id="6QKYpgGyAuVAJI2kbbSl-20" value="&lt;font face=&quot;Times New Roman&quot;&gt;Preprocessing Module (Collects URL-based features&lt;/font&gt;" style="text;html=1;align=center;verticalAlign=middle;whiteSpace=wrap;rounded=0;fontStyle=1" vertex="1" parent="1">
          <mxGeometry x="130" y="335" width="100" height="30" as="geometry" />
        </mxCell>
        <mxCell id="6QKYpgGyAuVAJI2kbbSl-21" value="&lt;font face=&quot;Times New Roman&quot;&gt;Dataset Preparation (Labels data and&amp;nbsp; train/test split)&lt;/font&gt;" style="text;html=1;align=center;verticalAlign=middle;whiteSpace=wrap;rounded=0;fontStyle=1" vertex="1" parent="1">
          <mxGeometry x="125" y="455" width="115" height="30" as="geometry" />
        </mxCell>
        <mxCell id="6QKYpgGyAuVAJI2kbbSl-22" value="&lt;font face=&quot;Times New Roman&quot;&gt;Model Training&lt;/font&gt;" style="text;html=1;align=center;verticalAlign=middle;whiteSpace=wrap;rounded=0;fontStyle=1" vertex="1" parent="1">
          <mxGeometry x="125" y="575" width="110" height="30" as="geometry" />
        </mxCell>
        <mxCell id="6QKYpgGyAuVAJI2kbbSl-23" value="&lt;font face=&quot;Times New Roman&quot;&gt;Model Evaluation&lt;/font&gt;" style="text;html=1;align=center;verticalAlign=middle;whiteSpace=wrap;rounded=0;fontStyle=1" vertex="1" parent="1">
          <mxGeometry x="325" y="575" width="110" height="30" as="geometry" />
        </mxCell>
        <mxCell id="6QKYpgGyAuVAJI2kbbSl-24" value="&lt;font face=&quot;Times New Roman&quot;&gt;Feature Importance Analysis&lt;/font&gt;" style="text;html=1;align=center;verticalAlign=middle;whiteSpace=wrap;rounded=0;fontStyle=1" vertex="1" parent="1">
          <mxGeometry x="325" y="455" width="110" height="30" as="geometry" />
        </mxCell>
        <mxCell id="6QKYpgGyAuVAJI2kbbSl-25" value="&lt;font face=&quot;Times New Roman&quot;&gt;Detection / Prediction module&lt;/font&gt;" style="text;html=1;align=center;verticalAlign=middle;whiteSpace=wrap;rounded=0;fontStyle=1" vertex="1" parent="1">
          <mxGeometry x="325" y="335" width="110" height="30" as="geometry" />
        </mxCell>
      </root>
    </mxGraphModel>
  </diagram>
</mxfile>
